<svg width="258" height="156" viewBox="0 0 258 156" fill="none" xmlns="http://www.w3.org/2000/svg">
<path d="M32.6065 124.768C26.7185 124.768 21.5345 123.616 17.0545 121.312C12.6385 119.008 9.2145 115.872 6.7825 111.904C4.3505 107.872 3.1345 103.296 3.1345 98.176C3.1345 92.992 4.3185 88.416 6.6865 84.448C9.1185 80.416 12.4145 77.28 16.5745 75.04C20.7345 72.736 25.4385 71.584 30.6865 71.584C35.7425 71.584 40.2865 72.672 44.3185 74.848C48.4145 76.96 51.6465 80.032 54.0145 84.064C56.3825 88.032 57.5665 92.8 57.5665 98.368C57.5665 98.944 57.5345 99.616 57.4705 100.384C57.4065 101.088 57.3425 101.76 57.2785 102.4H15.3265V93.664H49.4065L43.6465 96.256C43.6465 93.568 43.1025 91.232 42.0145 89.248C40.9265 87.264 39.4225 85.728 37.5025 84.64C35.5825 83.488 33.3425 82.912 30.7825 82.912C28.2225 82.912 25.9505 83.488 23.9665 84.64C22.0465 85.728 20.5425 87.296 19.4545 89.344C18.3665 91.328 17.8225 93.696 17.8225 96.448V98.752C17.8225 101.568 18.4305 104.064 19.6465 106.24C20.9265 108.352 22.6865 109.984 24.9265 111.136C27.2305 112.224 29.9185 112.768 32.9905 112.768C35.7425 112.768 38.1425 112.352 40.1905 111.52C42.3025 110.688 44.2225 109.44 45.9505 107.776L53.9185 116.416C51.5505 119.104 48.5745 121.184 44.9905 122.656C41.4065 124.064 37.2785 124.768 32.6065 124.768ZM91.825 143.392C86.961 143.392 82.257 142.784 77.713 141.568C73.233 140.416 69.489 138.656 66.481 136.288L72.433 125.536C74.609 127.328 77.361 128.736 80.689 129.76C84.081 130.848 87.409 131.392 90.673 131.392C95.985 131.392 99.825 130.208 102.193 127.84C104.625 125.472 105.841 121.952 105.841 117.28V109.504L106.801 96.544L106.609 83.488V72.352H120.817V115.36C120.817 124.96 118.321 132.032 113.329 136.576C108.337 141.12 101.169 143.392 91.825 143.392ZM89.521 121.504C84.721 121.504 80.369 120.48 76.465 118.432C72.625 116.32 69.521 113.408 67.153 109.696C64.849 105.92 63.697 101.536 63.697 96.544C63.697 91.488 64.849 87.104 67.153 83.392C69.521 79.616 72.625 76.704 76.465 74.656C80.369 72.608 84.721 71.584 89.521 71.584C93.873 71.584 97.713 72.48 101.041 74.272C104.369 76 106.961 78.72 108.817 82.432C110.673 86.08 111.601 90.784 111.601 96.544C111.601 102.24 110.673 106.944 108.817 110.656C106.961 114.304 104.369 117.024 101.041 118.816C97.713 120.608 93.873 121.504 89.521 121.504ZM92.497 109.216C95.121 109.216 97.457 108.704 99.505 107.68C101.553 106.592 103.153 105.088 104.305 103.168C105.457 101.248 106.033 99.04 106.033 96.544C106.033 93.984 105.457 91.776 104.305 89.92C103.153 88 101.553 86.528 99.505 85.504C97.457 84.416 95.121 83.872 92.497 83.872C89.873 83.872 87.537 84.416 85.489 85.504C83.441 86.528 81.809 88 80.593 89.92C79.441 91.776 78.865 93.984 78.865 96.544C78.865 99.04 79.441 101.248 80.593 103.168C81.809 105.088 83.441 106.592 85.489 107.68C87.537 108.704 89.873 109.216 92.497 109.216ZM159.044 143.392C154.18 143.392 149.476 142.784 144.932 141.568C140.452 140.416 136.708 138.656 133.7 136.288L139.652 125.536C141.828 127.328 144.58 128.736 147.908 129.76C151.3 130.848 154.628 131.392 157.892 131.392C163.204 131.392 167.044 130.208 169.412 127.84C171.844 125.472 173.06 121.952 173.06 117.28V109.504L174.02 96.544L173.828 83.488V72.352H188.036V115.36C188.036 124.96 185.54 132.032 180.548 136.576C175.556 141.12 168.388 143.392 159.044 143.392ZM156.74 121.504C151.94 121.504 147.588 120.48 143.684 118.432C139.844 116.32 136.74 113.408 134.372 109.696C132.068 105.92 130.916 101.536 130.916 96.544C130.916 91.488 132.068 87.104 134.372 83.392C136.74 79.616 139.844 76.704 143.684 74.656C147.588 72.608 151.94 71.584 156.74 71.584C161.092 71.584 164.932 72.48 168.26 74.272C171.588 76 174.18 78.72 176.036 82.432C177.892 86.08 178.82 90.784 178.82 96.544C178.82 102.24 177.892 106.944 176.036 110.656C174.18 114.304 171.588 117.024 168.26 118.816C164.932 120.608 161.092 121.504 156.74 121.504ZM159.716 109.216C162.34 109.216 164.676 108.704 166.724 107.68C168.772 106.592 170.372 105.088 171.524 103.168C172.676 101.248 173.252 99.04 173.252 96.544C173.252 93.984 172.676 91.776 171.524 89.92C170.372 88 168.772 86.528 166.724 85.504C164.676 84.416 162.34 83.872 159.716 83.872C157.092 83.872 154.756 84.416 152.708 85.504C150.66 86.528 149.028 88 147.812 89.92C146.66 91.776 146.084 93.984 146.084 96.544C146.084 99.04 146.66 101.248 147.812 103.168C149.028 105.088 150.66 106.592 152.708 107.68C154.756 108.704 157.092 109.216 159.716 109.216ZM201.975 124V72.352H216.951V124H201.975ZM209.463 65.152C206.711 65.152 204.471 64.352 202.743 62.752C201.015 61.152 200.151 59.168 200.151 56.8C200.151 54.432 201.015 52.448 202.743 50.848C204.471 49.248 206.711 48.448 209.463 48.448C212.215 48.448 214.455 49.216 216.183 50.752C217.911 52.224 218.775 54.144 218.775 56.512C218.775 59.008 217.911 61.088 216.183 62.752C214.519 64.352 212.279 65.152 209.463 65.152Z" fill="white"/>
<mask id="path-2-inside-1_203_3" fill="white">
<path d="M241.018 125.024C237.605 125.024 234.661 123.872 232.186 121.568C229.797 119.179 228.602 116.149 228.602 112.48C228.602 108.811 229.797 105.867 232.186 103.648C234.661 101.344 237.605 100.192 241.018 100.192C244.517 100.192 247.461 101.344 249.85 103.648C252.239 105.867 253.434 108.811 253.434 112.48C253.434 116.149 252.239 119.179 249.85 121.568C247.461 123.872 244.517 125.024 241.018 125.024Z"/>
</mask>
<path d="M232.186 121.568L227.943 125.811L228.019 125.886L228.097 125.959L232.186 121.568ZM232.186 103.648L236.269 108.045L236.275 108.039L232.186 103.648ZM249.85 103.648L245.685 107.967L245.726 108.006L245.767 108.045L249.85 103.648ZM249.85 121.568L254.015 125.887L254.054 125.849L254.093 125.811L249.85 121.568ZM241.018 125.024V119.024C239.106 119.024 237.627 118.436 236.275 117.177L232.186 121.568L228.097 125.959C231.694 129.308 236.104 131.024 241.018 131.024V125.024ZM232.186 121.568L236.429 117.325C235.267 116.164 234.602 114.709 234.602 112.48H228.602H222.602C222.602 117.59 224.327 122.194 227.943 125.811L232.186 121.568ZM228.602 112.48H234.602C234.602 110.248 235.262 108.98 236.269 108.045L232.186 103.648L228.103 99.2512C224.332 102.753 222.602 107.373 222.602 112.48H228.602ZM232.186 103.648L236.275 108.039C237.627 106.78 239.106 106.192 241.018 106.192V100.192V94.192C236.104 94.192 231.694 95.9079 228.097 99.2566L232.186 103.648ZM241.018 100.192V106.192C243.056 106.192 244.479 106.804 245.685 107.967L249.85 103.648L254.015 99.3289C250.442 95.8838 245.977 94.192 241.018 94.192V100.192ZM249.85 103.648L245.767 108.045C246.774 108.98 247.434 110.248 247.434 112.48H253.434H259.434C259.434 107.373 257.704 102.753 253.933 99.2512L249.85 103.648ZM253.434 112.48H247.434C247.434 114.709 246.769 116.164 245.607 117.325L249.85 121.568L254.093 125.811C257.709 122.194 259.434 117.59 259.434 112.48H253.434ZM249.85 121.568L245.685 117.249C244.479 118.412 243.056 119.024 241.018 119.024V125.024V131.024C245.977 131.024 250.442 129.332 254.015 125.887L249.85 121.568Z" fill="white" mask="url(#path-2-inside-1_203_3)"/>
</svg>
