<svg width="341" height="321" viewBox="0 0 341 321" fill="none" xmlns="http://www.w3.org/2000/svg">
<rect width="341" height="321" rx="44" fill="white"/>
<path d="M74.6065 180.768C68.7185 180.768 63.5345 179.616 59.0545 177.312C54.6385 175.008 51.2145 171.872 48.7825 167.904C46.3505 163.872 45.1345 159.296 45.1345 154.176C45.1345 148.992 46.3185 144.416 48.6865 140.448C51.1185 136.416 54.4145 133.28 58.5745 131.04C62.7345 128.736 67.4385 127.584 72.6865 127.584C77.7425 127.584 82.2865 128.672 86.3185 130.848C90.4145 132.96 93.6465 136.032 96.0145 140.064C98.3825 144.032 99.5665 148.8 99.5665 154.368C99.5665 154.944 99.5345 155.616 99.4705 156.384C99.4065 157.088 99.3425 157.76 99.2785 158.4H57.3265V149.664H91.4065L85.6465 152.256C85.6465 149.568 85.1025 147.232 84.0145 145.248C82.9265 143.264 81.4225 141.728 79.5025 140.64C77.5825 139.488 75.3425 138.912 72.7825 138.912C70.2225 138.912 67.9505 139.488 65.9665 140.64C64.0465 141.728 62.5425 143.296 61.4545 145.344C60.3665 147.328 59.8225 149.696 59.8225 152.448V154.752C59.8225 157.568 60.4305 160.064 61.6465 162.24C62.9265 164.352 64.6865 165.984 66.9265 167.136C69.2305 168.224 71.9185 168.768 74.9905 168.768C77.7425 168.768 80.1425 168.352 82.1905 167.52C84.3025 166.688 86.2225 165.44 87.9505 163.776L95.9185 172.416C93.5505 175.104 90.5745 177.184 86.9905 178.656C83.4065 180.064 79.2785 180.768 74.6065 180.768ZM133.825 199.392C128.961 199.392 124.257 198.784 119.713 197.568C115.233 196.416 111.489 194.656 108.481 192.288L114.433 181.536C116.609 183.328 119.361 184.736 122.689 185.76C126.081 186.848 129.409 187.392 132.673 187.392C137.985 187.392 141.825 186.208 144.193 183.84C146.625 181.472 147.841 177.952 147.841 173.28V165.504L148.801 152.544L148.609 139.488V128.352H162.817V171.36C162.817 180.96 160.321 188.032 155.329 192.576C150.337 197.12 143.169 199.392 133.825 199.392ZM131.521 177.504C126.721 177.504 122.369 176.48 118.465 174.432C114.625 172.32 111.521 169.408 109.153 165.696C106.849 161.92 105.697 157.536 105.697 152.544C105.697 147.488 106.849 143.104 109.153 139.392C111.521 135.616 114.625 132.704 118.465 130.656C122.369 128.608 126.721 127.584 131.521 127.584C135.873 127.584 139.713 128.48 143.041 130.272C146.369 132 148.961 134.72 150.817 138.432C152.673 142.08 153.601 146.784 153.601 152.544C153.601 158.24 152.673 162.944 150.817 166.656C148.961 170.304 146.369 173.024 143.041 174.816C139.713 176.608 135.873 177.504 131.521 177.504ZM134.497 165.216C137.121 165.216 139.457 164.704 141.505 163.68C143.553 162.592 145.153 161.088 146.305 159.168C147.457 157.248 148.033 155.04 148.033 152.544C148.033 149.984 147.457 147.776 146.305 145.92C145.153 144 143.553 142.528 141.505 141.504C139.457 140.416 137.121 139.872 134.497 139.872C131.873 139.872 129.537 140.416 127.489 141.504C125.441 142.528 123.809 144 122.593 145.92C121.441 147.776 120.865 149.984 120.865 152.544C120.865 155.04 121.441 157.248 122.593 159.168C123.809 161.088 125.441 162.592 127.489 163.68C129.537 164.704 131.873 165.216 134.497 165.216ZM201.044 199.392C196.18 199.392 191.476 198.784 186.932 197.568C182.452 196.416 178.708 194.656 175.7 192.288L181.652 181.536C183.828 183.328 186.58 184.736 189.908 185.76C193.3 186.848 196.628 187.392 199.892 187.392C205.204 187.392 209.044 186.208 211.412 183.84C213.844 181.472 215.06 177.952 215.06 173.28V165.504L216.02 152.544L215.828 139.488V128.352H230.036V171.36C230.036 180.96 227.54 188.032 222.548 192.576C217.556 197.12 210.388 199.392 201.044 199.392ZM198.74 177.504C193.94 177.504 189.588 176.48 185.684 174.432C181.844 172.32 178.74 169.408 176.372 165.696C174.068 161.92 172.916 157.536 172.916 152.544C172.916 147.488 174.068 143.104 176.372 139.392C178.74 135.616 181.844 132.704 185.684 130.656C189.588 128.608 193.94 127.584 198.74 127.584C203.092 127.584 206.932 128.48 210.26 130.272C213.588 132 216.18 134.72 218.036 138.432C219.892 142.08 220.82 146.784 220.82 152.544C220.82 158.24 219.892 162.944 218.036 166.656C216.18 170.304 213.588 173.024 210.26 174.816C206.932 176.608 203.092 177.504 198.74 177.504ZM201.716 165.216C204.34 165.216 206.676 164.704 208.724 163.68C210.772 162.592 212.372 161.088 213.524 159.168C214.676 157.248 215.252 155.04 215.252 152.544C215.252 149.984 214.676 147.776 213.524 145.92C212.372 144 210.772 142.528 208.724 141.504C206.676 140.416 204.34 139.872 201.716 139.872C199.092 139.872 196.756 140.416 194.708 141.504C192.66 142.528 191.028 144 189.812 145.92C188.66 147.776 188.084 149.984 188.084 152.544C188.084 155.04 188.66 157.248 189.812 159.168C191.028 161.088 192.66 162.592 194.708 163.68C196.756 164.704 199.092 165.216 201.716 165.216ZM243.975 180V128.352H258.951V180H243.975ZM251.463 121.152C248.711 121.152 246.471 120.352 244.743 118.752C243.015 117.152 242.151 115.168 242.151 112.8C242.151 110.432 243.015 108.448 244.743 106.848C246.471 105.248 248.711 104.448 251.463 104.448C254.215 104.448 256.455 105.216 258.183 106.752C259.911 108.224 260.775 110.144 260.775 112.512C260.775 115.008 259.911 117.088 258.183 118.752C256.519 120.352 254.279 121.152 251.463 121.152Z" fill="black"/>
<mask id="path-3-inside-1_205_3" fill="white">
<path d="M283.018 181.024C279.605 181.024 276.661 179.872 274.186 177.568C271.797 175.179 270.602 172.149 270.602 168.48C270.602 164.811 271.797 161.867 274.186 159.648C276.661 157.344 279.605 156.192 283.018 156.192C286.517 156.192 289.461 157.344 291.85 159.648C294.239 161.867 295.434 164.811 295.434 168.48C295.434 172.149 294.239 175.179 291.85 177.568C289.461 179.872 286.517 181.024 283.018 181.024Z"/>
</mask>
<path d="M274.186 177.568L269.943 181.811L270.019 181.886L270.097 181.959L274.186 177.568ZM274.186 159.648L278.269 164.045L278.275 164.039L274.186 159.648ZM291.85 159.648L287.685 163.967L287.726 164.006L287.767 164.045L291.85 159.648ZM291.85 177.568L296.015 181.887L296.054 181.849L296.093 181.811L291.85 177.568ZM283.018 181.024V175.024C281.106 175.024 279.627 174.436 278.275 173.177L274.186 177.568L270.097 181.959C273.694 185.308 278.104 187.024 283.018 187.024V181.024ZM274.186 177.568L278.429 173.325C277.267 172.164 276.602 170.709 276.602 168.48H270.602H264.602C264.602 173.59 266.327 178.194 269.943 181.811L274.186 177.568ZM270.602 168.48H276.602C276.602 166.248 277.262 164.98 278.269 164.045L274.186 159.648L270.103 155.251C266.332 158.753 264.602 163.373 264.602 168.48H270.602ZM274.186 159.648L278.275 164.039C279.627 162.78 281.106 162.192 283.018 162.192V156.192V150.192C278.104 150.192 273.694 151.908 270.097 155.257L274.186 159.648ZM283.018 156.192V162.192C285.056 162.192 286.479 162.804 287.685 163.967L291.85 159.648L296.015 155.329C292.442 151.884 287.977 150.192 283.018 150.192V156.192ZM291.85 159.648L287.767 164.045C288.774 164.98 289.434 166.248 289.434 168.48H295.434H301.434C301.434 163.373 299.704 158.753 295.933 155.251L291.85 159.648ZM295.434 168.48H289.434C289.434 170.709 288.769 172.164 287.607 173.325L291.85 177.568L296.093 181.811C299.709 178.194 301.434 173.59 301.434 168.48H295.434ZM291.85 177.568L287.685 173.249C286.479 174.412 285.056 175.024 283.018 175.024V181.024V187.024C287.977 187.024 292.442 185.332 296.015 181.887L291.85 177.568Z" fill="black" mask="url(#path-3-inside-1_205_3)"/>
</svg>
