<svg width="16" height="19" viewBox="0 0 16 19" fill="none" xmlns="http://www.w3.org/2000/svg">
<g clip-path="url(#clip0_58_121)">
<path d="M1.32112 16.6224L0 0.476807L15.7776 0.509252L14.3806 16.6224L7.94834 18.4849L1.32112 16.6224Z" fill="#1B73BA"/>
<path d="M7.94824 16.9255V2.0144L14.4456 2.03603L13.2869 15.377L7.94824 16.9255Z" fill="#1C88C7"/>
<path d="M12.8324 3.92041H2.8374L3.10817 5.86945H7.85111L3.184 7.87282L3.45464 9.75697H10.331L10.0819 12.3883L7.75365 12.8431L5.64212 12.3017L5.47964 10.8073H3.54129L3.80111 13.9153L7.95939 15.0739L11.9445 13.807L12.4535 7.73197H8.24084L12.8322 5.82619L12.8324 3.92041Z" fill="white"/>
</g>
<defs>
<clipPath id="clip0_58_121">
<rect width="15.7776" height="18.0687" fill="white" transform="translate(0 0.446533)"/>
</clipPath>
</defs>
</svg>
