<svg width="19" height="19" viewBox="0 0 19 19" fill="none" xmlns="http://www.w3.org/2000/svg">
<g clip-path="url(#clip0_58_303)">
<path d="M13.8627 0.361572H4.24368C1.89996 0.361572 0 2.26153 0 4.60526V14.2243C0 16.568 1.89996 18.468 4.24368 18.468H13.8627C16.2064 18.468 18.1064 16.568 18.1064 14.2243V4.60526C18.1064 2.26153 16.2064 0.361572 13.8627 0.361572Z" fill="#F4F2ED"/>
<path d="M16.1261 13.3003C15.9202 13.3783 15.6929 13.3781 15.487 13.2999C15.2813 13.2216 15.1113 13.0706 15.0092 12.8756C14.3682 11.916 13.6603 10.9997 12.98 10.0638L12.685 9.67053C11.8749 10.7559 11.0648 11.798 10.3254 12.8795C10.2291 13.066 10.0683 13.211 9.87299 13.2877C9.67764 13.3644 9.46107 13.3675 9.26367 13.2964L12.3036 9.21829L9.476 5.53341C9.67955 5.45991 9.9022 5.4589 10.1064 5.53055C10.3106 5.6022 10.4838 5.74211 10.5968 5.92667C11.2535 6.88622 11.9811 7.80253 12.7047 8.77391C13.4322 7.81038 14.1519 6.89015 14.8244 5.93847C14.9212 5.75505 15.0821 5.61364 15.2765 5.54113C15.4708 5.46862 15.685 5.47007 15.8783 5.5452L14.7811 7.00027C14.2895 7.64912 13.8058 8.30194 13.2946 8.9351C13.2534 8.97202 13.2204 9.01714 13.1978 9.06764C13.1753 9.11814 13.1636 9.17282 13.1636 9.22813C13.1636 9.28336 13.1753 9.33804 13.1978 9.38854C13.2204 9.43904 13.2534 9.48416 13.2946 9.52108C14.2345 10.7677 15.1665 12.0183 16.1261 13.3003Z" fill="#0F0F0F"/>
<path d="M1.98047 9.16718C2.06305 8.77393 2.11418 8.34525 2.22822 7.94415C2.90856 5.5256 5.68106 4.51885 7.58836 6.01718C8.70522 6.89415 8.98446 8.13688 8.92943 9.53688H2.63721C2.53497 12.038 4.34003 13.5481 6.64848 12.7774C7.02294 12.6434 7.35814 12.4183 7.62386 12.1224C7.88959 11.8265 8.07737 11.469 8.17038 11.0824C8.29231 10.6891 8.48894 10.6223 8.86252 10.7363C8.80099 11.215 8.63174 11.6736 8.36742 12.0776C8.10318 12.4815 7.75075 12.8202 7.3367 13.0683C6.65257 13.4425 5.86768 13.5907 5.09425 13.4918C4.32082 13.3929 3.59846 13.052 3.03048 12.5178C2.46857 11.886 2.12881 11.0877 2.06305 10.2447C2.06305 10.111 2.01193 9.9773 1.9844 9.85147C1.98178 9.61814 1.98047 9.39004 1.98047 9.16718ZM2.64508 8.99807H8.3356C8.30016 7.18516 7.15578 5.8992 5.62994 5.8874C3.93104 5.86381 2.71587 7.12224 2.64115 8.99022L2.64508 8.99807Z" fill="#0F0F0F"/>
</g>
<defs>
<clipPath id="clip0_58_303">
<rect width="18.1064" height="18.1064" fill="white" transform="translate(0 0.361572)"/>
</clipPath>
</defs>
</svg>
