<svg width="12" height="19" viewBox="0 0 12 19" fill="none" xmlns="http://www.w3.org/2000/svg">
<g clip-path="url(#clip0_58_256)">
<path d="M2.98493 18.2711C4.63261 18.2711 5.96986 16.9339 5.96986 15.2862V12.3013H2.98493C1.33725 12.3013 0 13.6385 0 15.2862C0 16.9339 1.33725 18.2711 2.98493 18.2711Z" fill="#0ACF83"/>
<path d="M0 9.31647C0 7.66879 1.33725 6.33154 2.98493 6.33154H5.96986V12.3014H2.98493C1.33725 12.3014 0 10.9642 0 9.31647Z" fill="#A259FF"/>
<path d="M0 3.3465C0 1.69882 1.33725 0.361572 2.98493 0.361572H5.96986V6.33143H2.98493C1.33725 6.33143 0 4.99418 0 3.3465Z" fill="#F24E1E"/>
<path d="M5.96973 0.361572H8.95466C10.6023 0.361572 11.9396 1.69882 11.9396 3.3465C11.9396 4.99418 10.6023 6.33143 8.95466 6.33143H5.96973V0.361572Z" fill="#FF7262"/>
<path d="M11.9396 9.31647C11.9396 10.9642 10.6023 12.3014 8.95466 12.3014C7.30697 12.3014 5.96973 10.9642 5.96973 9.31647C5.96973 7.66879 7.30697 6.33154 8.95466 6.33154C10.6023 6.33154 11.9396 7.66879 11.9396 9.31647Z" fill="#1ABCFE"/>
</g>
<defs>
<clipPath id="clip0_58_256">
<rect width="11.9397" height="17.9096" fill="white" transform="translate(0 0.361572)"/>
</clipPath>
</defs>
</svg>
