<svg width="19" height="19" viewBox="0 0 19 19" fill="none" xmlns="http://www.w3.org/2000/svg">
<g clip-path="url(#clip0_58_134)">
<path d="M0 0.446777H18.1064V18.5532H0" fill="#F7DF1E"/>
<path d="M11.458 13.5315C11.8588 14.2152 12.3892 14.557 13.0494 14.557C13.8745 14.557 14.2871 14.2388 14.2871 13.6022C14.2871 13.2132 13.7566 12.8596 12.9079 12.5059C11.3283 11.9873 10.5503 11.1032 10.5739 9.85363C10.5739 8.58052 11.5287 7.59033 13.0494 7.59033C14.181 7.59033 14.9826 8.05006 15.4541 8.96953L14.1456 9.81827C13.8627 9.29959 13.4973 9.05205 13.0494 9.07562C12.5307 9.0992 12.2596 9.34675 12.236 9.81827C12.236 10.3134 12.5543 10.5255 13.6152 10.9853C15.1358 11.5865 15.9846 12.2584 15.9846 13.7083C15.9138 15.2407 14.9826 16.0305 13.1908 16.0777C11.7055 16.0777 10.6564 15.5001 10.0434 14.3449L11.458 13.5315ZM5.44609 13.6729C5.729 14.1327 5.90582 14.557 6.6131 14.557C7.17893 14.557 7.46184 14.2034 7.46184 13.4961V7.6257H9.15931V13.4254C9.13574 15.0993 8.287 15.948 6.6131 15.9716C5.36358 15.948 4.51484 15.4294 4.06689 14.4156L5.44609 13.6729Z" fill="black"/>
</g>
<defs>
<clipPath id="clip0_58_134">
<rect width="18.1064" height="18.1064" fill="white" transform="translate(0 0.446777)"/>
</clipPath>
</defs>
</svg>
