<svg width="19" height="19" viewBox="0 0 19 19" fill="none" xmlns="http://www.w3.org/2000/svg">
<g clip-path="url(#clip0_63_8)">
<path d="M16.9979 7.97764L1.98604 0.390498C1.98604 0.390498 1.00519 0.268279 0.600623 0.526295C0.15447 0.810622 0 1.76149 0 1.76149V16.9361C0 16.9361 0.138344 18.0666 0.60034 18.3529C1.12231 18.6762 2.35581 18.2157 2.35581 18.2157L17.136 10.7199C17.136 10.7199 18.1064 10.1258 18.1064 9.30308C18.1064 8.48037 16.9979 7.97764 16.9979 7.97764Z" fill="#FFDA1C"/>
<path d="M5.72779 8.61648V6.87939H6.97486V8.61648H8.77617V9.85054H6.97486V11.5415H5.72779V9.85054H3.88037V8.61648H5.72779Z" fill="black"/>
</g>
<defs>
<clipPath id="clip0_63_8">
<rect width="18.1064" height="18.1064" fill="white" transform="translate(0 0.361572)"/>
</clipPath>
</defs>
</svg>
