<svg width="36" height="19" viewBox="0 0 36 19" fill="none" xmlns="http://www.w3.org/2000/svg">
<g clip-path="url(#clip0_58_264)">
<path d="M0.0664964 17.0128H1.2238V12.4429L3.01537 16.4268C3.22679 16.9089 3.51616 17.0796 4.08364 17.0796C4.65121 17.0796 4.92941 16.909 5.14092 16.4268L6.93248 12.4428V17.0128H8.08979V12.4503C8.08979 12.0051 7.91171 11.79 7.54457 11.6789C6.66546 11.4043 6.07563 11.6417 5.80852 12.2352L4.0503 16.1671L2.34777 12.2352C2.09183 11.6417 1.49092 11.4043 0.611806 11.6788C0.244481 11.79 0.0664062 12.0052 0.0664062 12.4502V17.0129L0.0664964 17.0128ZM9.05172 13.2937H10.2087V15.8115C10.1979 15.9483 10.2526 16.2693 10.8865 16.2792C11.2101 16.2843 13.3828 16.2792 13.4031 16.2792V13.2815H14.5628C14.5682 13.2815 14.5616 17.3696 14.5617 17.387C14.568 18.3953 13.3107 18.6143 12.7311 18.6312H9.07677V17.8526C9.08326 17.8526 12.7284 17.8535 12.7376 17.8526C13.4824 17.7738 13.3946 17.4036 13.3944 17.279V16.9754H10.9346C9.79006 16.9649 9.06136 16.4654 9.05235 15.8909C9.05145 15.8377 9.07695 13.3189 9.05163 13.2936L9.05172 13.2937Z" fill="#00618A"/>
<path d="M15.4556 17.0132H18.7828C19.1723 17.0132 19.5506 16.9318 19.8511 16.7906C20.3518 16.5608 20.5967 16.2493 20.5967 15.8411V14.9955C20.5967 14.6616 20.3185 14.3499 19.7732 14.1423C19.4839 14.0309 19.1277 13.9716 18.7828 13.9716H17.3805C16.9133 13.9716 16.6907 13.8306 16.6352 13.519C16.624 13.4819 16.624 13.4522 16.624 13.4151V12.8885C16.624 12.8587 16.624 12.829 16.6351 12.7921C16.6906 12.5547 16.8131 12.4878 17.2248 12.4508C17.2581 12.4508 17.3026 12.4433 17.3361 12.4433H20.6411V11.6719H17.3917C16.9243 11.6719 16.6795 11.7016 16.457 11.7683C15.767 11.9834 15.4666 12.3247 15.4666 12.9182V13.5932C15.4666 14.1127 16.0564 14.5578 17.0467 14.6616C17.1581 14.669 17.2693 14.6764 17.3805 14.6764H18.5824C18.627 14.6764 18.6716 14.6764 18.705 14.6837C19.0721 14.7135 19.2279 14.7802 19.3392 14.9137C19.4059 14.9804 19.4282 15.0473 19.4282 15.1214V15.7964C19.4282 15.8781 19.3726 15.9821 19.2615 16.0709C19.1612 16.16 18.9943 16.2194 18.7717 16.2342C18.7272 16.2342 18.6938 16.2416 18.6493 16.2416H15.4556V17.013V17.0132ZM27.8163 15.6705C27.8163 16.4644 28.406 16.9096 29.5968 16.9985C29.708 17.0059 29.8194 17.0133 29.9306 17.0133H32.9464V16.2419H29.9085C29.2296 16.2419 28.9737 16.0712 28.9737 15.6633V11.672H27.8163V15.6705V15.6705ZM21.3349 15.711V12.9606C21.3349 12.2617 21.8256 11.8379 22.7958 11.704C22.8992 11.6893 23.0035 11.6819 23.1079 11.6818H25.3047C25.4161 11.6818 25.5166 11.6893 25.6282 11.704C26.5982 11.8379 27.0888 12.2617 27.0888 12.9605V15.7109C27.0888 16.2779 26.8805 16.5815 26.4003 16.7791L27.5403 17.8081H26.1965L25.2742 16.9756L24.3457 17.0345H23.1078C22.8961 17.0345 22.673 17.0048 22.4276 16.9378C21.6917 16.7371 21.3348 16.3505 21.3348 15.7111L21.3349 15.711ZM22.584 15.6443C22.584 15.6814 22.5952 15.7186 22.6063 15.7633C22.6732 16.0828 22.9743 16.2613 23.4315 16.2613H24.4829L23.5172 15.3894H24.8608L25.7033 16.15C25.8585 16.0671 25.9606 15.9406 25.9963 15.7781C26.0074 15.741 26.0074 15.7038 26.0074 15.6667V13.0275C26.0074 12.9978 26.0074 12.9606 25.9963 12.9234C25.9294 12.626 25.6283 12.4551 25.1823 12.4551H23.4316C22.9189 12.4551 22.5842 12.6781 22.5842 13.0275V15.6443H22.584Z" fill="#E48E00"/>
<path d="M33.9643 10.3921C33.2532 10.3723 32.7089 10.439 32.2448 10.6346C32.1123 10.6904 31.9024 10.6913 31.8807 10.8572C31.9537 10.9329 31.9645 11.0464 32.0222 11.1401C32.1331 11.3204 32.3205 11.5601 32.4872 11.6863C32.6702 11.8241 32.8585 11.9719 33.0541 12.0909C33.4019 12.3036 33.7904 12.4243 34.1256 12.637C34.3239 12.7623 34.5203 12.9209 34.7123 13.0624C34.8078 13.1318 34.8718 13.2408 34.9961 13.285V13.2642C34.9304 13.1813 34.9141 13.0678 34.8538 12.9813C34.7663 12.8939 34.6789 12.8055 34.5915 12.7181C34.3338 12.3766 34.0075 12.0774 33.6606 11.8286C33.3839 11.6295 32.7648 11.3609 32.6494 11.0392C32.6422 11.0329 32.6359 11.0257 32.6287 11.0194C32.8252 10.9968 33.055 10.9257 33.2361 10.877C33.5398 10.7959 33.812 10.8166 34.1256 10.7355C34.268 10.6949 34.4095 10.6553 34.551 10.6147V10.5336C34.3924 10.3705 34.2788 10.1551 34.1058 10.0073C33.6525 9.62163 33.1586 9.23682 32.6494 8.9151C32.3674 8.73702 32.0177 8.62131 31.7185 8.47018C31.6185 8.41935 31.4419 8.39295 31.3752 8.30833C31.2175 8.1079 31.1318 7.85395 31.0111 7.62054C30.7569 7.13155 30.5076 6.59769 30.2827 6.08311C30.1292 5.73237 30.029 5.38649 29.8376 5.0717C28.9191 3.56149 27.9304 2.65003 26.3987 1.75406C26.0729 1.56355 25.6805 1.48821 25.2659 1.38998L24.5984 1.34943C24.4626 1.29265 24.3213 1.12656 24.1938 1.04609C23.6864 0.725624 22.3851 0.0283737 22.0093 0.944974C21.772 1.52354 22.3639 2.08813 22.5756 2.3812C22.7243 2.58694 22.9144 2.81738 23.0206 3.0488C23.0904 3.20074 23.1026 3.35322 23.1623 3.51409C23.3093 3.91025 23.4371 4.34138 23.6275 4.70753C23.7235 4.89273 23.8295 5.08783 23.951 5.25365C24.0256 5.35522 24.1533 5.40001 24.1736 5.55708C24.0486 5.73191 24.0415 6.00317 23.9713 6.2246C23.6551 7.22131 23.7744 8.46045 24.2342 9.19789C24.3754 9.42499 24.7077 9.91073 25.1647 9.72418C25.5645 9.56107 25.4752 9.0564 25.5895 8.61158C25.6154 8.51064 25.5994 8.43656 25.6502 8.36898V8.38916C25.7716 8.63194 25.893 8.87463 26.0143 9.11777C26.2837 9.55125 26.7621 10.0045 27.1673 10.311C27.3775 10.4696 27.5429 10.7444 27.8147 10.8372V10.8165H27.7944C27.7417 10.7345 27.6594 10.7003 27.5921 10.6345C27.4338 10.4795 27.2578 10.2866 27.1269 10.1091C26.7583 9.60802 26.4326 9.0601 26.1358 8.49037C25.9941 8.21821 25.8709 7.91775 25.7514 7.64072C25.7054 7.53384 25.7059 7.37235 25.6099 7.31702C25.479 7.52006 25.2864 7.68416 25.1851 7.92388C25.0232 8.30688 25.0023 8.77433 24.9424 9.25917C24.9069 9.27179 24.9226 9.26278 24.9018 9.279C24.6201 9.21141 24.5211 8.92123 24.4164 8.67232C24.1515 8.04311 24.1024 7.02981 24.3353 6.30552C24.3957 6.11807 24.6682 5.52779 24.5579 5.35477C24.5053 5.18201 24.3316 5.08216 24.2344 4.95013C24.114 4.78702 23.9938 4.57217 23.9106 4.38373C23.694 3.89313 23.5928 3.34232 23.3645 2.84648C23.2554 2.60929 23.0711 2.3693 22.9196 2.15861C22.752 1.9252 22.5641 1.75307 22.4341 1.47073C22.3879 1.37043 22.3251 1.20974 22.3935 1.10665C22.4154 1.03699 22.4462 1.00797 22.515 0.985257C22.6324 0.894868 22.9591 1.01536 23.0813 1.06618C23.4058 1.20091 23.6765 1.32915 23.9513 1.51119C24.0833 1.59861 24.2167 1.76785 24.3761 1.81462H24.5581C24.8429 1.88014 25.1619 1.83499 25.4279 1.91574C25.8982 2.05866 26.3196 2.28099 26.7022 2.52269C27.8684 3.25896 28.8216 4.30686 29.4737 5.55699C29.5785 5.75823 29.6239 5.95036 29.7163 6.16385C29.9028 6.59444 30.1376 7.03747 30.323 7.4585C30.5081 7.87846 30.6885 8.30247 30.9498 8.65204C31.0877 8.83588 31.6194 8.93438 31.86 9.0364C32.0294 9.10777 32.307 9.18257 32.4674 9.279C32.7738 9.46374 33.0703 9.68363 33.3578 9.8864C33.5011 9.98733 33.9418 10.209 33.9643 10.392V10.3921Z" fill="#00618A"/>
<path fill-rule="evenodd" clip-rule="evenodd" d="M24.9217 2.68458C24.7735 2.68188 24.6685 2.70081 24.5576 2.72514V2.74523H24.5779C24.6486 2.8906 24.7735 2.98405 24.861 3.10931C24.9284 3.25095 24.9959 3.39255 25.0634 3.53414L25.0836 3.51395C25.2088 3.42563 25.2662 3.28451 25.2656 3.06894C25.2154 3.01613 25.2079 2.94998 25.1645 2.8869C25.1066 2.80291 24.9946 2.75515 24.9217 2.68458Z" fill="#00618A"/>
<path fill-rule="evenodd" clip-rule="evenodd" d="M33.4893 16.2197C33.4893 16.7293 33.8918 17.0726 34.3421 17.0726C34.7925 17.0726 35.195 16.7293 35.195 16.2197C35.195 15.7103 34.7925 15.3669 34.3421 15.3669C33.8918 15.3669 33.4893 15.7103 33.4893 16.2197ZM35.004 16.2197C35.004 16.6063 34.7084 16.8953 34.3421 16.8953C33.9715 16.8953 33.6803 16.6063 33.6803 16.2196C33.6803 15.833 33.9714 15.5441 34.3421 15.5441C34.7084 15.5441 35.004 15.8331 35.004 16.2197ZM34.5719 16.7064H34.763L34.4833 16.2789C34.6333 16.263 34.747 16.1902 34.747 16.0128C34.747 15.8149 34.622 15.7331 34.3809 15.7331H34.001V16.7064H34.1647V16.2857H34.317L34.5719 16.7066L34.5719 16.7064ZM34.1648 16.1493V15.8696H34.3535C34.4514 15.8696 34.5696 15.8878 34.5696 16.0016C34.5696 16.138 34.4627 16.1494 34.3398 16.1494H34.1648V16.1493Z" fill="#E48E00"/>
</g>
<defs>
<clipPath id="clip0_58_264">
<rect width="35.2365" height="18.204" fill="white" transform="translate(0 0.446777)"/>
</clipPath>
</defs>
</svg>
