<svg width="19" height="19" viewBox="0 0 19 19" fill="none" xmlns="http://www.w3.org/2000/svg">
<g clip-path="url(#clip0_58_247)">
<path d="M9.0533 18.4682C14.0533 18.4682 18.1066 14.4149 18.1066 9.41488C18.1066 4.41487 14.0533 0.361572 9.0533 0.361572C4.0533 0.361572 0 4.41487 0 9.41488C0 14.4149 4.0533 18.4682 9.0533 18.4682Z" fill="black"/>
<path d="M15.0395 16.2068L6.9553 5.79346H5.43213V13.0331H6.6507V7.34097L14.083 16.9436C14.4178 16.7196 14.7374 16.4734 15.0395 16.2068Z" fill="url(#paint0_linear_58_247)"/>
<path d="M11.5679 5.79346H12.775V13.0361H11.5679V5.79346Z" fill="url(#paint1_linear_58_247)"/>
</g>
<defs>
<linearGradient id="paint0_linear_58_247" x1="10.9647" y1="12.0805" x2="14.5357" y2="16.5065" gradientUnits="userSpaceOnUse">
<stop stop-color="white"/>
<stop offset="1" stop-color="white" stop-opacity="0"/>
</linearGradient>
<linearGradient id="paint1_linear_58_247" x1="12.1714" y1="5.79346" x2="12.1512" y2="11.1123" gradientUnits="userSpaceOnUse">
<stop stop-color="white"/>
<stop offset="1" stop-color="white" stop-opacity="0"/>
</linearGradient>
<clipPath id="clip0_58_247">
<rect width="18.1064" height="18.1064" fill="white" transform="translate(0 0.361572)"/>
</clipPath>
</defs>
</svg>
