<svg width="30" height="19" viewBox="0 0 30 19" fill="none" xmlns="http://www.w3.org/2000/svg">
<g clip-path="url(#clip0_58_271)">
<path d="M14.3606 18.5499C14.2622 18.5499 14.1705 18.5232 14.0852 18.4764L13.2132 17.9485C13.0821 17.8749 13.1476 17.8482 13.187 17.8349C13.364 17.7747 13.3968 17.7613 13.5804 17.6545C13.6001 17.6411 13.6263 17.6478 13.6459 17.6611L14.3147 18.0688C14.3409 18.0821 14.3737 18.0821 14.3933 18.0688L17.0094 16.5251C17.0356 16.5117 17.0488 16.4849 17.0488 16.4516V13.3709C17.0488 13.3374 17.0356 13.3108 17.0094 13.2974L14.3933 11.7604C14.3671 11.747 14.3343 11.747 14.3147 11.7604L11.6987 13.2974C11.6725 13.3107 11.6593 13.3441 11.6593 13.3709V16.4515C11.6593 16.4783 11.6725 16.5117 11.6987 16.5251L12.4133 16.9461C12.8002 17.1465 13.0427 16.9126 13.0427 16.6788V13.6382C13.0427 13.5981 13.0755 13.558 13.1214 13.558H13.4558C13.4952 13.558 13.5345 13.5914 13.5345 13.6382V16.6788C13.5345 17.2067 13.2525 17.5141 12.7608 17.5141C12.61 17.5141 12.492 17.5141 12.1576 17.347L11.4692 16.9461C11.2987 16.8459 11.1938 16.6587 11.1938 16.4582V13.3776C11.1938 13.1771 11.2987 12.9899 11.4692 12.8897L14.0852 11.346C14.2491 11.2525 14.4721 11.2525 14.636 11.346L17.252 12.8897C17.4224 12.9899 17.5274 13.1771 17.5274 13.3776V16.4582C17.5274 16.6587 17.4224 16.8459 17.252 16.9461L14.636 18.4897C14.5507 18.5299 14.4523 18.5499 14.3606 18.5499ZM15.167 16.4315C14.0197 16.4315 13.7836 15.8969 13.7836 15.4425C13.7836 15.4024 13.8164 15.3623 13.8623 15.3623H14.2032C14.2426 15.3623 14.2754 15.389 14.2754 15.4291C14.3278 15.7833 14.4786 15.957 15.1736 15.957C15.7243 15.957 15.9604 15.8301 15.9604 15.5293C15.9604 15.3556 15.8948 15.2287 15.0359 15.1418C14.3212 15.0682 13.8754 14.9079 13.8754 14.3265C13.8754 13.7852 14.3213 13.4644 15.0687 13.4644C15.9079 13.4644 16.321 13.7585 16.3735 14.3999C16.3735 14.4201 16.3669 14.4401 16.3538 14.4601C16.3406 14.4735 16.321 14.4868 16.3013 14.4868H15.9604C15.9276 14.4868 15.8948 14.4601 15.8883 14.4267C15.8096 14.0592 15.6063 13.9389 15.0687 13.9389C14.4655 13.9389 14.3933 14.1528 14.3933 14.3131C14.3933 14.5069 14.4786 14.567 15.2916 14.674C16.098 14.7809 16.4784 14.9346 16.4784 15.5093C16.4718 16.0974 15.9997 16.4315 15.167 16.4315Z" fill="#539E43"/>
<path d="M6.24378 6.50127C6.24378 6.38101 6.1782 6.26733 6.07331 6.2072L3.29337 4.57667C3.24742 4.5499 3.19501 4.53654 3.14259 4.52983H3.11632C3.06391 4.52983 3.01143 4.5499 2.96554 4.57667L0.185606 6.2072C0.0806584 6.26733 0.0151367 6.38095 0.0151367 6.50127L0.0217172 10.885C0.0217172 10.9452 0.0545064 11.0053 0.106924 11.0321C0.159398 11.0655 0.224919 11.0655 0.27087 11.0321L1.92309 10.0698C2.02798 10.0096 2.09356 9.89602 2.09356 9.77575V7.72417C2.09356 7.60391 2.15908 7.49029 2.26403 7.43016L2.96554 7.01582C3.01801 6.9824 3.07701 6.96898 3.13601 6.96898C3.19501 6.96898 3.254 6.9824 3.29995 7.01582L4.00146 7.43016C4.10641 7.49029 4.17193 7.60385 4.17193 7.72417V9.77575C4.17193 9.89602 4.23751 10.0096 4.3424 10.0698L5.99462 11.0321C6.0471 11.0655 6.11262 11.0655 6.16509 11.0321C6.21757 11.0053 6.25036 10.9452 6.25036 10.885L6.24378 6.50127ZM19.6058 0.466855C19.5534 0.440085 19.4878 0.440085 19.4419 0.466855C19.3895 0.500276 19.3567 0.553702 19.3567 0.613835V4.95759C19.3567 4.99766 19.337 5.03773 19.2977 5.0645C19.2584 5.0845 19.219 5.0845 19.1797 5.0645L18.4847 4.65686C18.4337 4.62729 18.3761 4.61175 18.3175 4.61175C18.2589 4.61175 18.2012 4.62729 18.1503 4.65686L15.3703 6.2941C15.2655 6.35424 15.1999 6.46785 15.1999 6.58812V9.85589C15.1999 9.97616 15.2655 10.0898 15.3703 10.15L18.1503 11.7872C18.2012 11.8168 18.2589 11.8323 18.3175 11.8323C18.3761 11.8323 18.4337 11.8168 18.4847 11.7872L21.2646 10.15C21.3695 10.0898 21.4351 9.97622 21.4351 9.85589V1.70982C21.4351 1.58285 21.3695 1.46929 21.2646 1.4091L19.6058 0.466855ZM19.3501 8.78003C19.3501 8.81345 19.337 8.84016 19.3108 8.85352L18.3601 9.41484C18.3468 9.42144 18.3323 9.42487 18.3175 9.42487C18.3027 9.42487 18.2881 9.42144 18.2749 9.41484L17.3242 8.85352C17.2979 8.84016 17.2848 8.80674 17.2848 8.78003V7.65733C17.2848 7.62391 17.2979 7.5972 17.3242 7.58384L18.2749 7.02247C18.2881 7.01586 18.3027 7.01243 18.3175 7.01243C18.3323 7.01243 18.3468 7.01586 18.3601 7.02247L19.3108 7.58384C19.337 7.59714 19.3501 7.63062 19.3501 7.65733V8.78003ZM28.857 7.63062C28.9619 7.57049 29.0209 7.45687 29.0209 7.33655V6.54134C29.0209 6.42108 28.9553 6.30746 28.857 6.24733L26.0967 4.61679C26.0458 4.58724 25.9882 4.57169 25.9295 4.57169C25.8709 4.57169 25.8133 4.58724 25.7624 4.61679L22.9824 6.25398C22.8775 6.31411 22.812 6.42773 22.812 6.54805V9.81582C22.812 9.93609 22.8775 10.0497 22.9824 10.1098L25.7427 11.7137C25.8476 11.7738 25.9721 11.7738 26.0705 11.7137L27.7424 10.7648C27.7948 10.7381 27.8276 10.6779 27.8276 10.6178C27.8276 10.5577 27.7948 10.4975 27.7424 10.4708L24.9493 8.83351C24.8969 8.80015 24.8641 8.74667 24.8641 8.68653V7.6641C24.8641 7.60397 24.8969 7.54383 24.9493 7.51706L25.8214 7.00917C25.8469 6.99279 25.8764 6.98411 25.9066 6.98411C25.9368 6.98411 25.9663 6.99279 25.9918 7.00917L26.8638 7.51706C26.9163 7.55048 26.9491 7.60391 26.9491 7.6641V8.46601C26.9491 8.52614 26.9819 8.58627 27.0343 8.61299C27.0867 8.64641 27.1523 8.64641 27.2047 8.61299L28.857 7.63062Z" fill="#333333"/>
<path d="M25.8871 7.47705C25.8969 7.47052 25.9082 7.46704 25.9199 7.46704C25.9315 7.46704 25.9429 7.47052 25.9526 7.47705L26.4837 7.79113C26.5034 7.80443 26.5165 7.82449 26.5165 7.85126V8.47942C26.5165 8.50613 26.5034 8.5262 26.4837 8.53955L25.9526 8.85363C25.9429 8.86016 25.9315 8.86364 25.9199 8.86364C25.9082 8.86364 25.8969 8.86016 25.8871 8.85363L25.356 8.53955C25.3363 8.5262 25.3232 8.50613 25.3232 8.47942V7.85126C25.3232 7.82449 25.3363 7.80443 25.356 7.79113L25.8871 7.47705Z" fill="#539E43"/>
<path d="M10.8923 4.63006C10.8414 4.6005 10.7838 4.58496 10.7252 4.58496C10.6665 4.58496 10.6089 4.6005 10.558 4.63006L7.79773 6.25383C7.69279 6.31396 7.63379 6.42758 7.63379 6.54785V9.80232C7.63379 9.92259 7.69937 10.0362 7.79773 10.0963L10.558 11.7202C10.6089 11.7498 10.6665 11.7653 10.7252 11.7653C10.7838 11.7653 10.8414 11.7498 10.8923 11.7202L13.6526 10.0963C13.7575 10.0362 13.8166 9.92259 13.8166 9.80232V6.5479C13.8166 6.42764 13.751 6.31402 13.6526 6.25389L10.8923 4.63006Z" fill="url(#paint0_linear_58_271)"/>
<mask id="mask0_58_271" style="mask-type:luminance" maskUnits="userSpaceOnUse" x="7" y="4" width="7" height="8">
<path d="M10.8923 4.63006C10.8414 4.6005 10.7838 4.58496 10.7252 4.58496C10.6665 4.58496 10.6089 4.6005 10.558 4.63006L7.79773 6.25383C7.69279 6.31396 7.63379 6.42758 7.63379 6.54785V9.80232C7.63379 9.92259 7.69937 10.0362 7.79773 10.0963L10.558 11.7202C10.6089 11.7498 10.6665 11.7653 10.7252 11.7653C10.7838 11.7653 10.8414 11.7498 10.8923 11.7202L13.6526 10.0963C13.7575 10.0362 13.8166 9.92259 13.8166 9.80232V6.5479C13.8166 6.42764 13.751 6.31402 13.6526 6.25389L10.8923 4.63006Z" fill="white"/>
</mask>
<g mask="url(#mask0_58_271)">
<path d="M13.6593 6.25368L10.8859 4.62986C10.8587 4.61583 10.8301 4.60463 10.8006 4.59644L7.69287 10.0228C7.71861 10.0548 7.74971 10.0819 7.78471 10.103L10.5581 11.7268C10.6367 11.7736 10.7285 11.787 10.8137 11.7602L13.7314 6.32058C13.7117 6.29387 13.6855 6.27369 13.6593 6.25368Z" fill="url(#paint1_linear_58_271)"/>
</g>
<mask id="mask1_58_271" style="mask-type:luminance" maskUnits="userSpaceOnUse" x="7" y="4" width="7" height="8">
<path d="M10.8923 4.63006C10.8414 4.6005 10.7838 4.58496 10.7252 4.58496C10.6665 4.58496 10.6089 4.6005 10.558 4.63006L7.79773 6.25383C7.69279 6.31396 7.63379 6.42758 7.63379 6.54785V9.80232C7.63379 9.92259 7.69937 10.0362 7.79773 10.0963L10.558 11.7202C10.6089 11.7498 10.6665 11.7653 10.7252 11.7653C10.7838 11.7653 10.8414 11.7498 10.8923 11.7202L13.6526 10.0963C13.7575 10.0362 13.8166 9.92259 13.8166 9.80232V6.5479C13.8166 6.42764 13.751 6.31402 13.6526 6.25389L10.8923 4.63006Z" fill="white"/>
</mask>
<g mask="url(#mask1_58_271)">
<path fill-rule="evenodd" clip-rule="evenodd" d="M13.6654 10.0963C13.7441 10.0495 13.8031 9.96931 13.8294 9.88246L10.7871 4.58982C10.7084 4.57647 10.6231 4.58312 10.5511 4.62989L7.79736 6.24713L10.7674 11.7669C10.8106 11.7597 10.8525 11.7462 10.892 11.7269L13.6654 10.0963L13.6654 10.0963Z" fill="url(#paint2_linear_58_271)"/>
<path fill-rule="evenodd" clip-rule="evenodd" d="M13.6658 10.0963L10.899 11.7201C10.8599 11.7404 10.8178 11.754 10.7744 11.7602L10.8269 11.8605L13.8953 10.0495V10.0094L13.8166 9.87573C13.8035 9.96929 13.7445 10.0495 13.6658 10.0963Z" fill="url(#paint3_linear_58_271)"/>
<path fill-rule="evenodd" clip-rule="evenodd" d="M13.6658 10.0963L10.899 11.7201C10.8599 11.7404 10.8178 11.754 10.7744 11.7602L10.8269 11.8605L13.8953 10.0495V10.0094L13.8166 9.87573C13.8035 9.96929 13.7445 10.0495 13.6658 10.0963Z" fill="url(#paint4_linear_58_271)"/>
</g>
</g>
<defs>
<linearGradient id="paint0_linear_58_271" x1="429.227" y1="130.148" x2="118.402" y2="609.324" gradientUnits="userSpaceOnUse">
<stop stop-color="#41873F"/>
<stop offset="0.3288" stop-color="#418B3D"/>
<stop offset="0.6352" stop-color="#419637"/>
<stop offset="0.9319" stop-color="#3FA92D"/>
<stop offset="1" stop-color="#3FAE2A"/>
</linearGradient>
<linearGradient id="paint1_linear_58_271" x1="269.023" y1="400.568" x2="1033.26" y2="-6.80601" gradientUnits="userSpaceOnUse">
<stop offset="0.1376" stop-color="#41873F"/>
<stop offset="0.4032" stop-color="#54A044"/>
<stop offset="0.7136" stop-color="#66B848"/>
<stop offset="0.9081" stop-color="#6CC04A"/>
</linearGradient>
<linearGradient id="paint2_linear_58_271" x1="-18.6772" y1="363.722" x2="620.041" y2="363.722" gradientUnits="userSpaceOnUse">
<stop offset="0.09192" stop-color="#6CC04A"/>
<stop offset="0.2864" stop-color="#66B848"/>
<stop offset="0.5968" stop-color="#54A044"/>
<stop offset="0.8624" stop-color="#41873F"/>
</linearGradient>
<linearGradient id="paint3_linear_58_271" x1="-313.362" y1="109.659" x2="325.349" y2="109.659" gradientUnits="userSpaceOnUse">
<stop offset="0.09192" stop-color="#6CC04A"/>
<stop offset="0.2864" stop-color="#66B848"/>
<stop offset="0.5968" stop-color="#54A044"/>
<stop offset="0.8624" stop-color="#41873F"/>
</linearGradient>
<linearGradient id="paint4_linear_58_271" x1="418.401" y1="-409.041" x2="250.532" y2="453.979" gradientUnits="userSpaceOnUse">
<stop stop-color="#41873F"/>
<stop offset="0.3288" stop-color="#418B3D"/>
<stop offset="0.6352" stop-color="#419637"/>
<stop offset="0.9319" stop-color="#3FA92D"/>
<stop offset="1" stop-color="#3FAE2A"/>
</linearGradient>
<clipPath id="clip0_58_271">
<rect width="29.0489" height="18.1556" fill="white" transform="translate(0 0.446777)"/>
</clipPath>
</defs>
</svg>
