<svg width="19" height="19" viewBox="0 0 19 19" fill="none" xmlns="http://www.w3.org/2000/svg">
<g clip-path="url(#clip0_58_299)">
<path d="M13.8627 0.446777H4.24368C1.89996 0.446777 0 2.34674 0 4.69046V14.3095C0 16.6532 1.89996 18.5532 4.24368 18.5532H13.8627C16.2064 18.5532 18.1064 16.6532 18.1064 14.3095V4.69046C18.1064 2.34674 16.2064 0.446777 13.8627 0.446777Z" fill="#001E36"/>
<path d="M4.07373 13.0393V5.2762C4.07373 5.22339 4.09636 5.19322 4.14918 5.19322C4.27743 5.19322 4.39814 5.19322 4.57166 5.18567C4.75272 5.17812 4.94133 5.17812 5.14503 5.17058C5.34872 5.16304 5.56751 5.16304 5.80138 5.15549C6.03525 5.14795 6.26158 5.14795 6.48791 5.14795C7.10654 5.14795 7.61953 5.22339 8.04206 5.38182C8.41926 5.51008 8.76632 5.72131 9.05298 6.00046C9.29437 6.24187 9.48301 6.5361 9.60374 6.86051C9.7169 7.17737 9.77723 7.50178 9.77723 7.8413C9.77723 8.49009 9.62637 9.02571 9.32457 9.44824C9.02278 9.8707 8.60032 10.1876 8.10996 10.3686C7.5969 10.5573 7.0311 10.6252 6.41247 10.6252C6.23141 10.6252 6.1107 10.6252 6.03525 10.6176C5.95981 10.61 5.85419 10.61 5.71085 10.61V13.0318C5.71839 13.0846 5.68067 13.1299 5.62786 13.1374C5.62032 13.1374 5.61277 13.1374 5.59769 13.1374H4.16426C4.10391 13.1374 4.07373 13.1072 4.07373 13.0393ZM5.71839 6.64927V9.18414C5.82402 9.19171 5.92209 9.19928 6.01262 9.19928H6.41247C6.7067 9.19928 7.00093 9.15402 7.28004 9.06348C7.5215 8.99558 7.7327 8.85222 7.8987 8.66359C8.05713 8.47503 8.13259 8.21849 8.13259 7.88657C8.14009 7.65267 8.07976 7.41879 7.95903 7.21509C7.8308 7.01894 7.64973 6.86806 7.43097 6.78506C7.15181 6.6719 6.85004 6.62663 6.54073 6.63418C6.34457 6.63418 6.17105 6.63418 6.02771 6.64173C5.87682 6.63418 5.7712 6.64173 5.71839 6.64927Z" fill="#31A8FF"/>
<path d="M14.4849 8.72385C14.2586 8.60311 14.0172 8.52015 13.7606 8.46732C13.4815 8.40699 13.2024 8.36922 12.9156 8.36922C12.7648 8.36172 12.6063 8.38435 12.463 8.42205C12.365 8.44468 12.2819 8.49752 12.2292 8.57291C12.1914 8.63332 12.1688 8.70871 12.1688 8.77661C12.1688 8.84451 12.199 8.91241 12.2442 8.97281C12.3121 9.05577 12.4027 9.12367 12.5008 9.17651C12.6742 9.26704 12.8553 9.35 13.0364 9.42547C13.4438 9.56127 13.8361 9.74983 14.1982 9.97616C14.4472 10.1346 14.6509 10.3459 14.7942 10.6024C14.9149 10.8438 14.9752 11.1078 14.9677 11.3794C14.9752 11.734 14.8696 12.0886 14.6735 12.3828C14.4623 12.6846 14.168 12.9184 13.8285 13.0542C13.4588 13.2127 13.0062 13.2957 12.463 13.2957C12.116 13.2957 11.7765 13.2655 11.437 13.1976C11.1729 13.1523 10.9089 13.0694 10.6675 12.9562C10.6146 12.926 10.5769 12.8732 10.5844 12.8128V11.5001C10.5844 11.4775 10.592 11.4473 10.6146 11.4322C10.6373 11.4172 10.6599 11.4247 10.6825 11.4398C10.9768 11.6133 11.2861 11.734 11.6181 11.8094C11.9047 11.8849 12.2065 11.9226 12.5082 11.9226C12.795 11.9226 12.9987 11.8849 13.1345 11.817C13.2551 11.7642 13.3382 11.6359 13.3382 11.5001C13.3382 11.3945 13.2778 11.2964 13.1571 11.1983C13.0364 11.1003 12.7874 10.9871 12.4177 10.8438C12.033 10.708 11.6784 10.5269 11.3465 10.3006C11.1126 10.1346 10.9164 9.91583 10.7731 9.6593C10.6523 9.4179 10.592 9.15387 10.5996 8.88978C10.5996 8.56542 10.6901 8.25605 10.856 7.97696C11.0447 7.67516 11.3238 7.43374 11.6482 7.28285C12.0028 7.10178 12.4479 7.0188 12.9835 7.0188C13.2929 7.0188 13.6098 7.04143 13.9191 7.0867C14.1454 7.11688 14.3642 7.17723 14.5679 7.26021C14.5981 7.26776 14.6283 7.29794 14.6433 7.32811C14.6509 7.35829 14.6584 7.38847 14.6584 7.41865V8.64838C14.6584 8.67858 14.6433 8.70871 14.6207 8.72385C14.5528 8.73891 14.5151 8.73891 14.4849 8.72385Z" fill="#31A8FF"/>
</g>
<defs>
<clipPath id="clip0_58_299">
<rect width="18.1064" height="18.1064" fill="white" transform="translate(0 0.446777)"/>
</clipPath>
</defs>
</svg>
