<svg width="19" height="19" viewBox="0 0 19 19" fill="none" xmlns="http://www.w3.org/2000/svg">
<g clip-path="url(#clip0_63_2)">
<path d="M17.1668 14.2414L10.669 1.0175C10.506 0.686903 10.166 0.468797 9.78053 0.448578C9.38511 0.426473 9.03085 0.609272 8.83097 0.920325L1.78365 11.8591C1.56535 12.2 1.56968 12.6204 1.79609 12.9572L5.24095 18.0712C5.44626 18.3765 5.80201 18.5531 6.1717 18.5531C6.27656 18.5531 6.38189 18.539 6.48557 18.5096L16.4849 15.6754C16.7912 15.5885 17.0417 15.3808 17.1727 15.1055C17.3038 14.8303 17.3013 14.515 17.1668 14.2414ZM15.7119 14.8087L7.22769 17.2134C6.96853 17.287 6.72008 17.0721 6.77456 16.8216L9.80549 2.9109C9.86217 2.65077 10.2374 2.60942 10.3558 2.85031L15.9678 14.2709C16.0736 14.4864 15.9528 14.7405 15.7119 14.8087Z" fill="black"/>
</g>
<defs>
<clipPath id="clip0_63_2">
<rect width="18.8936" height="18.1064" fill="white" transform="translate(0 0.446777)"/>
</clipPath>
</defs>
</svg>
