<svg width="21" height="19" viewBox="0 0 21 19" fill="none" xmlns="http://www.w3.org/2000/svg">
<g clip-path="url(#clip0_58_253)">
<path d="M16.7721 6.32933C16.555 6.25485 16.336 6.18585 16.1155 6.12239C16.1525 5.97099 16.1866 5.82143 16.2169 5.67449C16.714 3.26159 16.389 1.31771 15.2791 0.677687C14.2149 0.0641223 12.4746 0.703903 10.7169 2.23359C10.5437 2.38462 10.3743 2.54 10.2089 2.69958C10.0982 2.59346 9.98554 2.48941 9.87098 2.38746C8.02885 0.751872 6.18242 0.0625286 5.0737 0.704381C4.01048 1.31986 3.69565 3.14724 4.14315 5.43401C4.18768 5.66049 4.23795 5.8858 4.29392 6.10972C4.03255 6.18399 3.78035 6.26304 3.53899 6.34718C1.37925 7.10019 0 8.28023 0 9.50425C0 10.7684 1.48068 12.0364 3.73015 12.8053C3.91252 12.8674 4.09641 12.9249 4.28164 12.9778C4.22149 13.219 4.16808 13.4618 4.12148 13.706C3.69485 15.9531 4.02801 17.7372 5.08836 18.3488C6.18354 18.9804 8.02168 18.3313 9.81145 16.7667C9.95659 16.6395 10.0985 16.5087 10.2371 16.3744C10.4162 16.5472 10.6001 16.715 10.7885 16.8775C12.5223 18.3694 14.2345 18.9718 15.2939 18.3585C16.388 17.7251 16.7436 15.8084 16.2819 13.4765C16.2456 13.2938 16.2048 13.112 16.1596 12.9313C16.2887 12.893 16.4154 12.8537 16.5389 12.8127C18.8775 12.038 20.399 10.7853 20.399 9.50425C20.399 8.27577 18.9752 7.08776 16.7721 6.32933ZM16.2649 11.9856C16.1533 12.0225 16.0389 12.0581 15.9222 12.0928C15.6641 11.2755 15.3157 10.4064 14.8893 9.50847C15.2962 8.63195 15.6312 7.774 15.8821 6.96202C16.0908 7.02242 16.2932 7.08609 16.4885 7.15326C18.3762 7.80316 19.5276 8.76391 19.5276 9.50425C19.5276 10.2928 18.2841 11.3165 16.2649 11.9856ZM15.4271 13.6457C15.6312 14.6768 15.6603 15.6091 15.5251 16.338C15.4037 16.9929 15.1593 17.4295 14.8572 17.6044C14.2144 17.9765 12.8396 17.4929 11.3569 16.217C11.1816 16.0658 11.0106 15.9099 10.844 15.7492C11.4188 15.1206 11.9933 14.3898 12.5539 13.5782C13.5401 13.4907 14.4718 13.3476 15.3166 13.1523C15.3582 13.3201 15.3952 13.4848 15.4271 13.6457ZM6.95448 17.5401C6.32641 17.7619 5.82615 17.7682 5.52375 17.5939C4.88031 17.2228 4.61281 15.7902 4.97768 13.8685C5.02105 13.6414 5.07072 13.4156 5.12661 13.1913C5.96217 13.3762 6.88706 13.5091 7.87554 13.5892C8.44002 14.3834 9.03103 15.1134 9.62667 15.7526C9.50009 15.8751 9.37051 15.9945 9.23805 16.1106C8.44655 16.8024 7.65346 17.2933 6.95448 17.5401ZM4.01207 11.9807C3.01738 11.6407 2.19592 11.1989 1.63288 10.7167C1.12689 10.2835 0.871501 9.85326 0.871501 9.50425C0.871501 8.76144 1.97887 7.814 3.82585 7.17008C4.05 7.09199 4.28459 7.01828 4.52803 6.94911C4.78333 7.77942 5.11816 8.64757 5.52224 9.52545C5.11291 10.4163 4.77329 11.2983 4.51552 12.1384C4.34644 12.09 4.17857 12.0374 4.01207 11.9807ZM4.9984 5.26659C4.61504 3.30741 4.86963 1.82951 5.51037 1.45859C6.19278 1.06352 7.70183 1.6268 9.29239 3.03911C9.39611 3.13142 9.49815 3.22559 9.59846 3.32159C9.00577 3.95803 8.42018 4.68259 7.86072 5.4721C6.90133 5.56102 5.98297 5.70382 5.13864 5.89514C5.08662 5.68686 5.03986 5.47722 4.9984 5.26659ZM13.7976 7.43941C13.5982 7.09493 13.3914 6.75479 13.1773 6.41922C13.8282 6.50153 14.4518 6.61078 15.0374 6.74433C14.8616 7.30785 14.6424 7.89695 14.3845 8.50095C14.196 8.14323 14.0003 7.78931 13.7976 7.43941ZM10.2093 3.9444C10.6112 4.37987 11.0138 4.86602 11.4098 5.39353C10.6065 5.35559 9.80199 5.35543 8.99876 5.39305C9.39511 4.8704 9.8011 4.38489 10.2093 3.9444ZM6.59797 7.44538C6.39783 7.79247 6.20582 8.14419 6.0221 8.50024C5.76838 7.89838 5.55125 7.30657 5.37395 6.73508C5.95596 6.60488 6.57662 6.49842 7.22333 6.41762C7.00686 6.75524 6.79835 7.09798 6.59797 7.44538ZM7.24189 12.6529C6.57375 12.5783 5.94377 12.4773 5.36192 12.3506C5.542 11.7689 5.76392 11.1645 6.02313 10.5498C6.20759 10.9061 6.40039 11.258 6.6014 11.6053C6.8081 11.9623 7.02213 12.3119 7.24189 12.6529ZM10.2334 15.1255C9.8203 14.6799 9.40833 14.1869 9.00601 13.6566C9.39662 13.6719 9.7948 13.6798 10.1995 13.6798C10.6153 13.6798 11.0263 13.6704 11.4309 13.6524C11.0336 14.1922 10.6326 14.6859 10.2334 15.1255ZM14.3927 10.5184C14.6654 11.1399 14.8952 11.7411 15.0777 12.3129C14.4863 12.4478 13.8477 12.5565 13.1748 12.6373C13.3904 12.2955 13.5992 11.9494 13.8011 11.5993C14.0063 11.2434 14.2035 10.883 14.3927 10.5184ZM13.0462 11.1639C12.7372 11.7007 12.4108 12.2273 12.0676 12.7428C11.4459 12.7869 10.8228 12.8087 10.1995 12.8084C9.56467 12.8084 8.94721 12.7887 8.3526 12.7501C8.00042 12.2357 7.66782 11.7082 7.35552 11.1687C7.04469 10.632 6.75443 10.0837 6.48522 9.52505C6.75375 8.96622 7.04321 8.41769 7.35297 7.88061L7.35289 7.88069C7.66254 7.34348 7.99249 6.81823 8.34201 6.30607C8.94864 6.26017 9.57073 6.23626 10.1994 6.23626C10.831 6.23626 11.454 6.26041 12.0604 6.30662C12.4064 6.81802 12.7343 7.34147 13.0433 7.87599C13.3541 8.41188 13.6474 8.95774 13.9227 9.5127C13.6503 10.0733 13.3579 10.6241 13.0462 11.1639ZM14.8439 1.43261C15.5269 1.82657 15.7926 3.41522 15.3634 5.49855C15.336 5.63146 15.3052 5.76685 15.2718 5.90414C14.4254 5.70876 13.5064 5.56349 12.5442 5.47321C11.9837 4.67502 11.4029 3.94934 10.8199 3.32111C10.9727 3.17382 11.1291 3.03034 11.289 2.89082C12.7951 1.58026 14.2026 1.0628 14.8439 1.43261ZM10.1995 7.68268C11.2055 7.68268 12.0211 8.49824 12.0211 9.50425C12.0211 10.5103 11.2055 11.3258 10.1995 11.3258C9.19351 11.3258 8.37794 10.5103 8.37794 9.50425C8.37794 8.49824 9.19351 7.68268 10.1995 7.68268Z" fill="#00D8FF"/>
</g>
<defs>
<clipPath id="clip0_58_253">
<rect width="20.399" height="18.1679" fill="white" transform="translate(0 0.446777)"/>
</clipPath>
</defs>
</svg>
