<svg width="30" height="19" viewBox="0 0 30 19" fill="none" xmlns="http://www.w3.org/2000/svg">
<g clip-path="url(#clip0_58_240)">
<path d="M15.0035 0.446777C11.0182 0.446777 8.55666 2.43942 7.50173 6.42472C9.02552 4.43207 10.7837 3.72878 12.7764 4.19764C13.9485 4.43207 14.6518 5.25257 15.5895 6.19029C17.1133 7.71408 18.7543 9.47229 22.5052 9.47229C26.4905 9.47229 28.952 7.47965 30.0069 3.49435C28.4831 5.487 26.7249 6.19029 24.7323 5.72143C23.5601 5.36979 22.8568 4.54928 21.9191 3.61157C20.3953 2.20499 18.7543 0.446777 15.0035 0.446777ZM7.50173 9.47229C3.51643 9.47229 1.05493 11.4649 0 15.4502C1.52379 13.4576 3.28201 12.7543 5.27465 13.2232C6.4468 13.4576 7.15008 14.2781 8.0878 15.2158C9.61159 16.7396 11.2526 18.4978 15.0035 18.4978C18.9887 18.4978 21.4503 16.5052 22.5052 12.4027C20.9814 14.3953 19.2232 15.2158 17.2305 14.7469C16.0584 14.3953 15.3551 13.5748 14.4174 12.6371C12.8936 11.2305 11.2526 9.47229 7.50173 9.47229Z" fill="url(#paint0_linear_58_240)"/>
</g>
<defs>
<linearGradient id="paint0_linear_58_240" x1="-84.0193" y1="578.08" x2="2510.73" y2="2071.81" gradientUnits="userSpaceOnUse">
<stop stop-color="#2298BD"/>
<stop offset="1" stop-color="#0ED7B5"/>
</linearGradient>
<clipPath id="clip0_58_240">
<rect width="30.0069" height="18.051" fill="white" transform="translate(0 0.446777)"/>
</clipPath>
</defs>
</svg>
