<svg width="19" height="19" viewBox="0 0 19 19" fill="none" xmlns="http://www.w3.org/2000/svg">
<g clip-path="url(#clip0_58_236)">
<path d="M0 9.05319V18.1064H18.1064V0H0V9.05319Z" fill="#007ACC"/>
<path d="M4.00378 9.11333L3.99805 9.85477H6.35471V16.5513H8.02177V9.85477H10.3784V9.12768C10.3784 8.72524 10.3698 8.389 10.3583 8.38037C10.3497 8.36891 8.91556 8.36311 7.17678 8.36601L4.01248 8.37464L4.00385 9.11326L4.00378 9.11333ZM14.6099 8.35357C15.0697 8.46857 15.4203 8.67255 15.7422 9.00596C15.9089 9.1842 16.1561 9.50898 16.1762 9.58657C16.1819 9.60956 15.3945 10.1384 14.9174 10.4344C14.9001 10.4459 14.8311 10.3712 14.7535 10.2562C14.5208 9.91708 14.2765 9.77046 13.9028 9.74465C13.354 9.70723 13.0004 9.99467 13.0033 10.4746C13.0033 10.6154 13.0234 10.6988 13.0809 10.8138C13.2016 11.0638 13.4257 11.2132 14.1299 11.5179C15.4261 12.0755 15.9807 12.4433 16.3257 12.9664C16.7108 13.5499 16.797 14.481 16.5354 15.1737C16.2481 15.9266 15.5353 16.4383 14.5322 16.6078C14.2219 16.6624 13.4861 16.6538 13.1527 16.5935C12.4256 16.4641 11.7358 16.1049 11.3105 15.6335C11.1438 15.4496 10.819 14.9696 10.8391 14.9351C10.8478 14.9236 10.9225 14.8777 11.0058 14.8288C11.0863 14.7828 11.391 14.6074 11.6783 14.4408L12.1985 14.139L12.3077 14.3C12.4601 14.5327 12.7934 14.8518 12.9947 14.9581C13.5723 15.2628 14.3656 15.2196 14.7564 14.869C14.9231 14.7167 14.9921 14.5586 14.9921 14.3258C14.9921 14.116 14.9662 14.024 14.857 13.866C14.7162 13.6648 14.4288 13.4952 13.6125 13.1418C12.6785 12.7393 12.2761 12.4893 11.9083 12.0927C11.6956 11.8628 11.4944 11.4949 11.4111 11.1874C11.3421 10.9316 11.3248 10.2907 11.3794 10.032C11.572 9.12952 12.2531 8.50019 13.236 8.31332C13.555 8.25299 14.2965 8.27591 14.6099 8.35357Z" fill="white"/>
</g>
<defs>
<clipPath id="clip0_58_236">
<rect width="18.1064" height="18.1064" fill="white"/>
</clipPath>
</defs>
</svg>
